<?xml version="1.0" encoding="UTF-8"?>
<svg id="Layer_2" data-name="Layer 2" xmlns="http://www.w3.org/2000/svg" viewBox="0 0 993 942">
  <defs>
    <style>
      .cls-1 {
        fill: #fff;
      }

      .cls-2 {
        fill: #141212;
      }
    </style>
  </defs>
  <g id="Layer_1-2" data-name="Layer 1">
    <g>
      <rect class="cls-2" width="993" height="942"/>
      <path class="cls-1" d="m584.93,811.15c-27.77,9.26-56.74,14.78-86.08,15.99-125.22,5.16-248.35-70.41-306.98-181.18C77.57,430.01,212.99,131.35,468.31,117.79c110.02-5.84,221.37,48.57,284.37,138.95,47.44-21.13,101.54-26.99,152.4-16.51,5.06,1.04,10.92,2.99,12.37,7.95,1.06,3.63-.76,7.42-2.57,10.74-22.12,40.33-52.36,76.19-88.38,104.81-5.06,4.02-10.48,8.22-12.74,14.28-2.29,6.12-.9,12.93.36,19.34,19.43,98.99-1.1,206.08-59.55,288.3-41.44,58.29-101.99,102.96-169.64,125.51Zm-140.18-7.24c4.71.89,9.45,1.68,14.2,2.36,4.74.68,10.23,1.02,13.61-2.37,2.92-2.93,3.11-7.53,3.13-11.67.61-101.93,16.28-204.85,56.98-298.3,40.71-93.45,107.72-177.1,196.17-227.76-60.58-83.24-166.21-131.45-268.79-122.67-52.04,4.46-102.43,23.54-145.27,53.25-44.31,30.72-73.25,70.99-101.78,115.52s-39.63,102.12-40.99,153.21c-1.44,53.95,9.68,108.36,33.53,156.86,45.81,93.14,137.34,162.22,239.21,181.57Zm112.66-8.38c73.58-19.19,139.97-66.15,182.9-129.22,53.48-78.57,70.53-180.1,49.26-272.73-53.54,25.25-108.42,50.88-167.33,56.73-15.43,1.53-31.91,1.98-44.66,10.81-11.67,8.08-18,21.71-23.42,34.83-20.47,49.54-35.63,101.26-45.26,153.98-4.93,27.01-8.41,54.28-10.42,81.66-1,13.69-1.63,27.41-1.89,41.13-.13,6.91-4.47,32.39,5.48,31.76,18.72-1.19,37.25-4.23,55.34-8.95Zm236.19-526.98c-34.93,9.3-68.06,25.64-97.3,46.98-20.59,15.03-39.34,32.51-56.12,51.69-15.9,18.18-35.76,40.51-44.63,63.15,18.73,1.87,41.97-5.27,60.19-9.82,20.1-5.02,39.81-11.57,58.93-19.54,38.23-15.95,74.09-37.62,105.8-64.29,24.9-20.94,47.5-45.14,63.32-73.56-4.84-3.88-11.63-3.9-17.83-3.73-8.88.24-17.76.48-26.62,1.19-15.47,1.24-30.77,3.94-45.73,7.92Z"/>
    </g>
  </g>
</svg>